<?xml version="1.0" encoding="UTF-8" standalone="no"?>
<!-- Generator: Adobe Illustrator 19.0.0, SVG Export Plug-In . SVG Version: 6.00 Build 0)  -->

<svg
   xmlns:dc="http://purl.org/dc/elements/1.1/"
   xmlns:cc="http://creativecommons.org/ns#"
   xmlns:rdf="http://www.w3.org/1999/02/22-rdf-syntax-ns#"
   xmlns:svg="http://www.w3.org/2000/svg"
   xmlns="http://www.w3.org/2000/svg"
   xmlns:sodipodi="http://sodipodi.sourceforge.net/DTD/sodipodi-0.dtd"
   xmlns:inkscape="http://www.inkscape.org/namespaces/inkscape"
   version="1.1"
   id="Capa_1"
   x="0px"
   y="0px"
   viewBox="0 0 100 100"
   xml:space="preserve"
   sodipodi:docname="credits.svg"
   width="100"
   height="100"
   inkscape:version="0.92.1 r15371"><metadata
     id="metadata43"><rdf:RDF><cc:Work
         rdf:about=""><dc:format>image/svg+xml</dc:format><dc:type
           rdf:resource="http://purl.org/dc/dcmitype/StillImage" /><dc:title></dc:title></cc:Work></rdf:RDF></metadata><defs
     id="defs41" /><sodipodi:namedview
     pagecolor="#ffffff"
     bordercolor="#666666"
     borderopacity="1"
     objecttolerance="10"
     gridtolerance="10"
     guidetolerance="10"
     inkscape:pageopacity="0"
     inkscape:pageshadow="2"
     inkscape:window-width="1536"
     inkscape:window-height="801"
     id="namedview39"
     showgrid="false"
     inkscape:pagecheckerboard="true"
     inkscape:zoom="0.32593203"
     inkscape:cx="-187.29395"
     inkscape:cy="517.43563"
     inkscape:window-x="-8"
     inkscape:window-y="-8"
     inkscape:window-maximized="1"
     inkscape:current-layer="Capa_1" /><g
     id="g8"
     transform="translate(0,-412)" /><g
     id="g10"
     transform="translate(0,-412)" /><g
     id="g12"
     transform="translate(0,-412)" /><g
     id="g14"
     transform="translate(0,-412)" /><g
     id="g16"
     transform="translate(0,-412)" /><g
     id="g18"
     transform="translate(0,-412)" /><g
     id="g20"
     transform="translate(0,-412)" /><g
     id="g22"
     transform="translate(0,-412)" /><g
     id="g24"
     transform="translate(0,-412)" /><g
     id="g26"
     transform="translate(0,-412)" /><g
     id="g28"
     transform="translate(0,-412)" /><g
     id="g30"
     transform="translate(0,-412)" /><g
     id="g32"
     transform="translate(0,-412)" /><g
     id="g34"
     transform="translate(0,-412)" /><g
     id="g36"
     transform="translate(0,-412)" /><g
     id="g4572"><circle
       r="50"
       cy="50"
       cx="50"
       id="path4525-0"
       style="opacity:1;fill:#ffffff;fill-opacity:1;fill-rule:nonzero;stroke:none;stroke-width:0.28278607;stroke-linecap:square;stroke-linejoin:miter;stroke-miterlimit:4;stroke-dasharray:0.5655721, 1.13114421;stroke-dashoffset:0;stroke-opacity:1" /><g
       style="fill:#679ef5;fill-opacity:1"
       transform="matrix(0.13559322,0,0,0.13559322,15.288136,15.288136)"
       id="g6"><g
         style="fill:#679ef5;fill-opacity:1"
         id="g4"><path
           style="fill:#679ef5;fill-opacity:1"
           inkscape:connector-curvature="0"
           id="path2"
           d="M 480,213.333 H 443.093 C 438.609,193.859 431.086,175.213 420.8,158.08 l 87.36,-87.36 c 4.136,-4.16 4.136,-10.88 0,-15.04 L 456.32,3.84 c -4.16,-4.136 -10.88,-4.136 -15.04,0 L 353.92,91.2 C 336.787,80.914 318.141,73.39 298.667,68.907 V 32 c 0,-17.673 -14.327,-32 -32,-32 h -32 c -17.673,0 -32,14.327 -32,32 V 71.68 C 185.942,76.581 169.97,83.76 155.2,93.013 L 126.187,64 C 113.693,51.522 93.454,51.522 80.96,64 L 58.347,86.293 c -12.478,12.494 -12.478,32.733 0,45.227 l 30.4,30.4 C 79.666,178 72.982,195.321 68.907,213.333 H 32 c -17.673,0 -32,14.327 -32,32 v 21.333 c 0,17.673 14.327,32 32,32 h 36.907 c 4.444,19.47 11.931,38.117 22.187,55.253 l -46.507,46.613 c -0.899,0.929 -1.622,2.013 -2.133,3.2 h 0.213 L 0.96,496.96 c -2.393,5.383 0.031,11.687 5.414,14.08 2.759,1.226 5.908,1.226 8.666,0 l 93.227,-41.707 c 1.187,-0.511 2.271,-1.234 3.2,-2.133 l 46.613,-46.613 c 13.955,8.463 28.94,15.095 44.587,19.733 V 480 c 0,17.673 14.327,32 32,32 h 32 c 17.673,0 32,-14.327 32,-32 v -36.907 c 17.976,-4.083 35.26,-10.767 51.307,-19.84 L 375.147,448 c 12.494,12.478 32.733,12.478 45.227,0 l 22.613,-22.613 c 12.478,-12.494 12.478,-32.733 0,-45.227 l -23.573,-23.68 c 11.037,-17.829 19.039,-37.365 23.68,-57.813 H 480 c 17.673,0 32,-14.327 32,-32 v -21.333 c 0,-17.674 -14.327,-32.001 -32,-32.001 z m -31.253,-186.88 36.8,36.8 -34.56,34.453 -36.693,-36.693 z m -49.6,49.6 36.8,36.8 -27.2,27.2 c -10.554,-13.868 -22.932,-26.247 -36.8,-36.8 z M 32,480 l 23.893,-53.333 29.44,29.76 z M 103.893,444.8 67.2,408.107 302.933,172.374 c 15.401,8.671 28.129,21.399 36.8,36.8 z M 160,256 c 0.04,-53.019 43.054,-95.967 96.073,-95.927 8.589,0.007 17.139,1.166 25.42,3.447 L 163.52,281.493 C 161.208,273.192 160.024,264.617 160,256 Z m 188.48,-25.493 c 14.024,51.131 -16.057,103.95 -67.189,117.973 -16.621,4.559 -34.163,4.559 -50.785,0 z m 142.187,36.16 c 0,5.891 -4.776,10.667 -10.667,10.667 h -45.653 c -5.216,-0.085 -9.728,3.615 -10.667,8.747 -4.135,23.627 -13.262,46.101 -26.773,65.92 -2.883,4.237 -2.345,9.925 1.28,13.547 l 29.76,29.76 c 4.136,4.16 4.136,10.88 0,15.04 l -22.613,22.933 c -4.148,4.183 -10.902,4.21 -15.085,0.062 -0.021,-0.021 -0.041,-0.041 -0.062,-0.062 l -30.933,-30.933 c -3.519,-3.525 -9.01,-4.145 -13.227,-1.493 -18.323,11.447 -38.674,19.268 -59.947,23.04 -5.132,0.938 -8.832,5.451 -8.747,10.667 V 480 c 0,5.891 -4.776,10.667 -10.667,10.667 h -32 c -5.891,0 -10.667,-4.776 -10.667,-10.667 v -47.893 c 0.135,-5.052 -3.294,-9.506 -8.213,-10.667 -14.663,-3.474 -28.797,-8.891 -42.027,-16.107 l 39.573,-40 c 60.37,23.551 128.402,-6.297 151.953,-66.667 23.551,-60.37 -6.296,-128.402 -66.667,-151.953 -60.37,-23.551 -128.402,6.296 -151.953,66.667 -10.698,27.422 -10.698,57.864 0,85.287 l -40,39.573 C 97.613,322 91.306,304.376 88,286.08 87.062,280.948 82.549,277.248 77.333,277.333 H 32 c -5.891,0 -10.667,-4.776 -10.667,-10.667 v -21.333 c 0,-5.891 4.776,-10.667 10.667,-10.667 h 45.653 c 5.216,0.085 9.728,-3.615 10.667,-8.747 3.777,-21.271 11.598,-41.621 23.04,-59.947 2.652,-4.217 2.032,-9.707 -1.493,-13.227 L 73.6,116.48 c -4.136,-4.16 -4.136,-10.88 0,-15.04 L 96,78.72 c 4.148,-4.183 10.902,-4.21 15.085,-0.062 0.021,0.021 0.041,0.041 0.062,0.062 l 35.093,35.093 c 3.622,3.625 9.31,4.163 13.547,1.28 17.037,-11.6 36.052,-19.987 56.107,-24.747 4.919,-1.161 8.348,-5.614 8.213,-10.667 V 32 c 0,-5.891 4.776,-10.667 10.667,-10.667 h 32 c 5.891,0 10.667,4.776 10.667,10.667 v 45.653 c -0.085,5.216 3.615,9.728 8.747,10.667 70.125,12.624 125.029,67.484 137.707,137.6 0.938,5.132 5.451,8.832 10.667,8.747 H 480 c 5.891,0 10.667,4.776 10.667,10.667 z" /></g></g></g></svg>