<?xml version="1.0" encoding="UTF-8" standalone="no"?>
<!-- Generator: Adobe Illustrator 18.0.0, SVG Export Plug-In . SVG Version: 6.00 Build 0)  -->

<svg
   xmlns:dc="http://purl.org/dc/elements/1.1/"
   xmlns:cc="http://creativecommons.org/ns#"
   xmlns:rdf="http://www.w3.org/1999/02/22-rdf-syntax-ns#"
   xmlns:svg="http://www.w3.org/2000/svg"
   xmlns="http://www.w3.org/2000/svg"
   xmlns:sodipodi="http://sodipodi.sourceforge.net/DTD/sodipodi-0.dtd"
   xmlns:inkscape="http://www.inkscape.org/namespaces/inkscape"
   version="1.1"
   id="Capa_1"
   x="0px"
   y="0px"
   viewBox="0 0 99.999999 99.999999"
   xml:space="preserve"
   sodipodi:docname="download-tray.svg"
   width="100"
   height="100"
   inkscape:version="0.92.1 r15371"><metadata
     id="metadata43"><rdf:RDF><cc:Work
         rdf:about=""><dc:format>image/svg+xml</dc:format><dc:type
           rdf:resource="http://purl.org/dc/dcmitype/StillImage" /><dc:title></dc:title></cc:Work></rdf:RDF></metadata><defs
     id="defs41" /><sodipodi:namedview
     pagecolor="#ffffff"
     bordercolor="#666666"
     borderopacity="1"
     objecttolerance="10"
     gridtolerance="10"
     guidetolerance="10"
     inkscape:pageopacity="0"
     inkscape:pageshadow="2"
     inkscape:window-width="1920"
     inkscape:window-height="1001"
     id="namedview39"
     showgrid="false"
     inkscape:pagecheckerboard="true"
     inkscape:zoom="1.2616374"
     inkscape:cx="-72.950424"
     inkscape:cy="164.80924"
     inkscape:window-x="-9"
     inkscape:window-y="-9"
     inkscape:window-maximized="1"
     inkscape:current-layer="Capa_1" /><g
     id="g8"
     transform="translate(0,-274.117)" /><g
     id="g10"
     transform="translate(0,-274.117)" /><g
     id="g12"
     transform="translate(0,-274.117)" /><g
     id="g14"
     transform="translate(0,-274.117)" /><g
     id="g16"
     transform="translate(0,-274.117)" /><g
     id="g18"
     transform="translate(0,-274.117)" /><g
     id="g20"
     transform="translate(0,-274.117)" /><g
     id="g22"
     transform="translate(0,-274.117)" /><g
     id="g24"
     transform="translate(0,-274.117)" /><g
     id="g26"
     transform="translate(0,-274.117)" /><g
     id="g28"
     transform="translate(0,-274.117)" /><g
     id="g30"
     transform="translate(0,-274.117)" /><g
     id="g32"
     transform="translate(0,-274.117)" /><g
     id="g34"
     transform="translate(0,-274.117)" /><g
     id="g36"
     transform="translate(0,-274.117)" /><g
     id="g4575"
     transform="translate(-32.388725,-154.85582)"><circle
       r="50"
       cy="204.85582"
       cx="82.388725"
       id="path4525-0"
       style="opacity:1;fill:#ffffff;fill-opacity:1;fill-rule:nonzero;stroke:none;stroke-width:0.28278607;stroke-linecap:square;stroke-linejoin:miter;stroke-miterlimit:4;stroke-dasharray:0.5655721, 1.13114421;stroke-dashoffset:0;stroke-opacity:1" /><g
       style="fill:#679ef5;fill-opacity:1"
       transform="matrix(0.18046226,0,0,0.18040581,48.631635,165.27121)"
       id="g6"><path
         style="fill:#679ef5;fill-opacity:1"
         inkscape:connector-curvature="0"
         id="path2"
         d="m 344.059,207.508 c -16.568,0 -30,13.432 -30,30 v 76.609 h -254 v -76.609 c 0,-16.568 -13.432,-30 -30,-30 -16.568,0 -30,13.432 -30,30 v 106.609 c 0,16.568 13.432,30 30,30 h 314 c 16.568,0 30,-13.432 30,-30 V 237.508 c 0,-16.569 -13.432,-30 -30,-30 z" /><path
         style="fill:#679ef5;fill-opacity:1"
         inkscape:connector-curvature="0"
         id="path4"
         d="m 250.547,108.287 -33.488,33.488 V 30 c 0,-16.568 -13.432,-30 -30,-30 -16.568,0 -30,13.432 -30,30 V 141.775 L 123.571,108.287 C 117.714,102.43 110.036,99.5 102.358,99.5 c -7.678,0 -15.355,2.93 -21.213,8.787 -11.715,11.717 -11.715,30.711 0,42.426 l 84.701,84.701 c 11.715,11.717 30.711,11.717 42.426,0 l 84.701,-84.701 c 11.717,-11.715 11.717,-30.709 0,-42.426 -11.715,-11.717 -30.711,-11.717 -42.426,0 z" /></g></g></svg>