<?xml version="1.0" encoding="UTF-8" standalone="no"?>
<!-- Generator: Adobe Illustrator 19.0.0, SVG Export Plug-In . SVG Version: 6.00 Build 0)  -->

<svg
   xmlns:dc="http://purl.org/dc/elements/1.1/"
   xmlns:cc="http://creativecommons.org/ns#"
   xmlns:rdf="http://www.w3.org/1999/02/22-rdf-syntax-ns#"
   xmlns:svg="http://www.w3.org/2000/svg"
   xmlns="http://www.w3.org/2000/svg"
   xmlns:sodipodi="http://sodipodi.sourceforge.net/DTD/sodipodi-0.dtd"
   xmlns:inkscape="http://www.inkscape.org/namespaces/inkscape"
   version="1.1"
   id="Capa_1"
   x="0px"
   y="0px"
   viewBox="0 0 100 100"
   xml:space="preserve"
   sodipodi:docname="manual.svg"
   width="100"
   height="100"
   inkscape:version="0.92.1 r15371"><metadata
     id="metadata61"><rdf:RDF><cc:Work
         rdf:about=""><dc:format>image/svg+xml</dc:format><dc:type
           rdf:resource="http://purl.org/dc/dcmitype/StillImage" /><dc:title></dc:title></cc:Work></rdf:RDF></metadata><defs
     id="defs59" /><sodipodi:namedview
     pagecolor="#ffffff"
     bordercolor="#666666"
     borderopacity="1"
     objecttolerance="10"
     gridtolerance="10"
     guidetolerance="10"
     inkscape:pageopacity="0"
     inkscape:pageshadow="2"
     inkscape:window-width="1536"
     inkscape:window-height="801"
     id="namedview57"
     showgrid="false"
     inkscape:pagecheckerboard="true"
     inkscape:zoom="1.84375"
     inkscape:cx="-113.97499"
     inkscape:cy="46.151627"
     inkscape:window-x="-8"
     inkscape:window-y="-8"
     inkscape:window-maximized="1"
     inkscape:current-layer="Capa_1" /><g
     id="g26"
     transform="translate(0,-412)" /><g
     id="g28"
     transform="translate(0,-412)" /><g
     id="g30"
     transform="translate(0,-412)" /><g
     id="g32"
     transform="translate(0,-412)" /><g
     id="g34"
     transform="translate(0,-412)" /><g
     id="g36"
     transform="translate(0,-412)" /><g
     id="g38"
     transform="translate(0,-412)" /><g
     id="g40"
     transform="translate(0,-412)" /><g
     id="g42"
     transform="translate(0,-412)" /><g
     id="g44"
     transform="translate(0,-412)" /><g
     id="g46"
     transform="translate(0,-412)" /><g
     id="g48"
     transform="translate(0,-412)" /><g
     id="g50"
     transform="translate(0,-412)" /><g
     id="g52"
     transform="translate(0,-412)" /><g
     id="g54"
     transform="translate(0,-412)" /><g
     id="g4584"><circle
       r="50"
       cy="50"
       cx="50"
       id="path4525-0"
       style="opacity:1;fill:#ffffff;fill-opacity:1;fill-rule:nonzero;stroke:none;stroke-width:0.28278607;stroke-linecap:square;stroke-linejoin:miter;stroke-miterlimit:4;stroke-dasharray:0.5655721, 1.13114421;stroke-dashoffset:0;stroke-opacity:1" /><g
       style="fill:#679ef5;fill-opacity:1"
       transform="matrix(0.14812637,0,0,0.14812637,12.079723,77.107714)"
       id="g4550"><g
         style="fill:#679ef5;fill-opacity:1"
         id="g6"
         transform="translate(0,-412)"><g
           style="fill:#679ef5;fill-opacity:1"
           id="g4"><path
             style="fill:#679ef5;fill-opacity:1"
             d="m 256,133.094 c -26.9,0 -48.786,21.885 -48.786,48.786 0,26.9 21.885,48.786 48.786,48.786 26.901,0 48.786,-21.885 48.786,-48.786 0,-26.901 -21.886,-48.786 -48.786,-48.786 z"
             id="path2"
             inkscape:connector-curvature="0" /></g></g><g
         style="fill:#679ef5;fill-opacity:1"
         id="g12"
         transform="translate(0,-412)"><g
           style="fill:#679ef5;fill-opacity:1"
           id="g10"><path
             style="fill:#679ef5;fill-opacity:1"
             d="M 110.961,0 C 91.649,0 75.936,15.713 75.936,35.025 V 365.983 C 86.054,359.486 98.07,355.7 110.961,355.7 H 436.063 V 0 Z M 356.03,196.879 h -22.694 c -2.051,10.592 -6.214,20.438 -12.057,29.066 l 16.06,16.06 -21.213,21.213 -16.06,-16.06 c -8.628,5.843 -18.475,10.007 -29.066,12.057 v 22.695 h -30 v -22.695 c -10.592,-2.051 -20.439,-6.214 -29.066,-12.057 l -16.06,16.06 -21.212,-21.213 16.06,-16.06 c -5.843,-8.628 -10.007,-18.475 -12.057,-29.066 H 155.97 V 166.88 h 22.694 c 2.051,-10.592 6.214,-20.438 12.057,-29.066 l -16.06,-16.06 21.212,-21.213 16.06,16.06 c 8.628,-5.843 18.475,-10.007 29.066,-12.057 V 81.85 H 271 v 22.694 c 10.592,2.051 20.439,6.214 29.066,12.057 l 16.06,-16.06 21.213,21.213 -16.06,16.06 c 5.843,8.628 10.007,18.475 12.057,29.066 h 22.694 z"
             id="path8"
             inkscape:connector-curvature="0" /></g></g><g
         style="fill:#679ef5;fill-opacity:1"
         id="g18"
         transform="translate(0,-412)"><g
           style="fill:#679ef5;fill-opacity:1"
           id="g16"><path
             style="fill:#679ef5;fill-opacity:1"
             d="m 110.961,385.7 c -19.313,0 -35.025,15.712 -35.025,35.025 0,19.313 15.713,35.025 35.025,35.025 H 140.95 V 422.4 h 118.932 v 33.35 H 436.063 V 385.7 Z"
             id="path14"
             inkscape:connector-curvature="0" /></g></g><g
         style="fill:#679ef5;fill-opacity:1"
         id="g24"
         transform="translate(0,-412)"><g
           style="fill:#679ef5;fill-opacity:1"
           id="g22"><polygon
             style="fill:#679ef5;fill-opacity:1"
             points="200.416,498.739 229.884,512 229.884,452.399 170.95,452.399 170.95,512 "
             id="polygon20" /></g></g></g></g></svg>