<?xml version="1.0" encoding="UTF-8" standalone="no"?>
<!-- Generator: Adobe Illustrator 16.0.0, SVG Export Plug-In . SVG Version: 6.00 Build 0)  -->

<svg
   xmlns:dc="http://purl.org/dc/elements/1.1/"
   xmlns:cc="http://creativecommons.org/ns#"
   xmlns:rdf="http://www.w3.org/1999/02/22-rdf-syntax-ns#"
   xmlns:svg="http://www.w3.org/2000/svg"
   xmlns="http://www.w3.org/2000/svg"
   xmlns:sodipodi="http://sodipodi.sourceforge.net/DTD/sodipodi-0.dtd"
   xmlns:inkscape="http://www.inkscape.org/namespaces/inkscape"
   version="1.1"
   id="Capa_1"
   x="0px"
   y="0px"
   width="650"
   height="650"
   viewBox="0 0 649.99998 649.99998"
   xml:space="preserve"
   sodipodi:docname="legend.svg"
   inkscape:version="0.92.1 r15371"><metadata
     id="metadata51"><rdf:RDF><cc:Work
         rdf:about=""><dc:format>image/svg+xml</dc:format><dc:type
           rdf:resource="http://purl.org/dc/dcmitype/StillImage" /><dc:title></dc:title></cc:Work></rdf:RDF></metadata><defs
     id="defs49" /><sodipodi:namedview
     pagecolor="#ffffff"
     bordercolor="#666666"
     borderopacity="1"
     objecttolerance="10"
     gridtolerance="10"
     guidetolerance="10"
     inkscape:pageopacity="0"
     inkscape:pageshadow="2"
     inkscape:window-width="1920"
     inkscape:window-height="1001"
     id="namedview47"
     showgrid="false"
     inkscape:zoom="0.46127353"
     inkscape:cx="255.81351"
     inkscape:cy="255.81351"
     inkscape:window-x="-9"
     inkscape:window-y="-9"
     inkscape:window-maximized="1"
     inkscape:current-layer="Capa_1"
     inkscape:pagecheckerboard="true" /><rect
     style="opacity:1;fill:#ffffff;fill-opacity:1;fill-rule:nonzero;stroke:none;stroke-width:0.81684113;stroke-linecap:square;stroke-linejoin:miter;stroke-miterlimit:4;stroke-dasharray:1.63368219, 3.26736438;stroke-dashoffset:0;stroke-opacity:1"
     id="rect4528"
     width="650"
     height="650"
     x="-7.3569822e-006"
     y="-7.3569822e-006"
     ry="125" /><g
     id="g14"
     style="fill:#498af3;fill-opacity:1"
     transform="matrix(1.0358033,0,0,1.0358033,44.028135,74.028568)"><g
       id="g12"
       style="fill:#498af3;fill-opacity:1"><path
         d="m 333.584,438.536 h -73.087 c -2.666,0 -4.853,0.855 -6.567,2.573 -1.709,1.711 -2.568,3.901 -2.568,6.564 v 54.815 c 0,2.673 0.855,4.853 2.568,6.571 1.715,1.711 3.901,2.566 6.567,2.566 h 73.087 c 2.666,0 4.856,-0.855 6.563,-2.566 1.718,-1.719 2.563,-3.898 2.563,-6.571 v -54.815 c 0,-2.663 -0.846,-4.854 -2.563,-6.564 -1.707,-1.717 -3.897,-2.573 -6.563,-2.573 z"
         id="path2"
         style="fill:#498af3;fill-opacity:1"
         inkscape:connector-curvature="0" /><path
         d="M 196.54,401.991 H 141.723 V 9.136 c 0,-2.663 -0.854,-4.856 -2.568,-6.567 C 137.441,0.859 135.254,0 132.587,0 H 77.769 C 75.106,0 72.913,0.855 71.202,2.568 69.493,4.283 68.634,6.473 68.634,9.135 V 401.99 H 13.816 c -4.184,0 -7.04,1.902 -8.564,5.708 -1.525,3.621 -0.855,6.95 1.997,9.996 l 91.361,91.365 c 2.094,1.707 4.281,2.562 6.567,2.562 2.474,0 4.665,-0.855 6.567,-2.562 l 91.076,-91.078 c 1.906,-2.279 2.856,-4.571 2.856,-6.844 0,-2.676 -0.859,-4.859 -2.568,-6.584 -1.713,-1.706 -3.9,-2.562 -6.568,-2.562 z"
         id="path4"
         style="fill:#498af3;fill-opacity:1"
         inkscape:connector-curvature="0" /><path
         d="M 388.4,292.362 H 260.494 c -2.666,0 -4.853,0.855 -6.567,2.566 -1.71,1.711 -2.568,3.901 -2.568,6.563 v 54.823 c 0,2.662 0.855,4.853 2.568,6.563 1.714,1.711 3.901,2.566 6.567,2.566 H 388.4 c 2.666,0 4.855,-0.855 6.563,-2.566 1.715,-1.711 2.573,-3.901 2.573,-6.563 v -54.823 c 0,-2.662 -0.858,-4.853 -2.573,-6.563 -1.707,-1.71 -3.897,-2.566 -6.563,-2.566 z"
         id="path6"
         style="fill:#498af3;fill-opacity:1"
         inkscape:connector-curvature="0" /><path
         d="M 504.604,2.568 C 502.889,0.859 500.702,0 498.036,0 H 260.497 c -2.666,0 -4.853,0.855 -6.567,2.568 -1.709,1.715 -2.568,3.905 -2.568,6.567 v 54.818 c 0,2.666 0.855,4.853 2.568,6.567 1.715,1.709 3.901,2.568 6.567,2.568 h 237.539 c 2.666,0 4.853,-0.855 6.567,-2.568 1.711,-1.714 2.566,-3.901 2.566,-6.567 V 9.136 c 0.004,-2.663 -0.855,-4.857 -2.565,-6.568 z"
         id="path8"
         style="fill:#498af3;fill-opacity:1"
         inkscape:connector-curvature="0" /><path
         d="M 443.22,146.181 H 260.494 c -2.666,0 -4.853,0.855 -6.567,2.57 -1.71,1.713 -2.568,3.9 -2.568,6.567 v 54.816 c 0,2.667 0.855,4.854 2.568,6.567 1.714,1.711 3.901,2.57 6.567,2.57 H 443.22 c 2.663,0 4.853,-0.855 6.57,-2.57 1.708,-1.713 2.563,-3.9 2.563,-6.567 v -54.816 c 0,-2.667 -0.855,-4.858 -2.563,-6.567 -1.721,-1.711 -3.911,-2.57 -6.57,-2.57 z"
         id="path10"
         style="fill:#498af3;fill-opacity:1"
         inkscape:connector-curvature="0" /></g></g><g
     id="g16"
     transform="translate(0,138.37299)" /><g
     id="g18"
     transform="translate(0,138.37299)" /><g
     id="g20"
     transform="translate(0,138.37299)" /><g
     id="g22"
     transform="translate(0,138.37299)" /><g
     id="g24"
     transform="translate(0,138.37299)" /><g
     id="g26"
     transform="translate(0,138.37299)" /><g
     id="g28"
     transform="translate(0,138.37299)" /><g
     id="g30"
     transform="translate(0,138.37299)" /><g
     id="g32"
     transform="translate(0,138.37299)" /><g
     id="g34"
     transform="translate(0,138.37299)" /><g
     id="g36"
     transform="translate(0,138.37299)" /><g
     id="g38"
     transform="translate(0,138.37299)" /><g
     id="g40"
     transform="translate(0,138.37299)" /><g
     id="g42"
     transform="translate(0,138.37299)" /><g
     id="g44"
     transform="translate(0,138.37299)" /></svg>