<?xml version="1.0" encoding="UTF-8" standalone="no"?>
<!-- Generator: Adobe Illustrator 16.0.0, SVG Export Plug-In . SVG Version: 6.00 Build 0)  -->

<svg
   xmlns:dc="http://purl.org/dc/elements/1.1/"
   xmlns:cc="http://creativecommons.org/ns#"
   xmlns:rdf="http://www.w3.org/1999/02/22-rdf-syntax-ns#"
   xmlns:svg="http://www.w3.org/2000/svg"
   xmlns="http://www.w3.org/2000/svg"
   xmlns:sodipodi="http://sodipodi.sourceforge.net/DTD/sodipodi-0.dtd"
   xmlns:inkscape="http://www.inkscape.org/namespaces/inkscape"
   version="1.1"
   id="Capa_1"
   x="0px"
   y="0px"
   width="650"
   height="650"
   viewBox="0 0 649.99998 649.99998"
   xml:space="preserve"
   sodipodi:docname="legend_close.svg"
   inkscape:version="0.92.1 r15371"><metadata
     id="metadata51"><rdf:RDF><cc:Work
         rdf:about=""><dc:format>image/svg+xml</dc:format><dc:type
           rdf:resource="http://purl.org/dc/dcmitype/StillImage" /><dc:title></dc:title></cc:Work></rdf:RDF></metadata><defs
     id="defs49" /><sodipodi:namedview
     pagecolor="#ffffff"
     bordercolor="#666666"
     borderopacity="1"
     objecttolerance="10"
     gridtolerance="10"
     guidetolerance="10"
     inkscape:pageopacity="0"
     inkscape:pageshadow="2"
     inkscape:window-width="1920"
     inkscape:window-height="1001"
     id="namedview47"
     showgrid="false"
     inkscape:zoom="0.46127353"
     inkscape:cx="255.81351"
     inkscape:cy="255.81351"
     inkscape:window-x="-9"
     inkscape:window-y="-9"
     inkscape:window-maximized="1"
     inkscape:current-layer="Capa_1"
     inkscape:pagecheckerboard="true" /><g
     id="g4573"><rect
       ry="125"
       y="-7.3569822e-006"
       x="-7.3569822e-006"
       height="650"
       width="650"
       id="rect4528"
       style="opacity:1;fill:#ffffff;fill-opacity:1;fill-rule:nonzero;stroke:none;stroke-width:0.81684113;stroke-linecap:square;stroke-linejoin:miter;stroke-miterlimit:4;stroke-dasharray:1.63368219, 3.26736438;stroke-dashoffset:0;stroke-opacity:1" /><path
       inkscape:connector-curvature="0"
       style="fill:#498af3;fill-opacity:1;stroke-width:1.03580332"
       id="path2"
       d="m 389.55554,528.2656 h -75.70375 c -2.76145,0 -5.02676,0.88562 -6.80212,2.66513 -1.77019,1.77226 -2.65995,4.04066 -2.65995,6.79901 v 56.77756 c 0,2.7687 0.88562,5.02675 2.65995,6.80626 1.7764,1.77226 4.04067,2.65787 6.80212,2.65787 h 75.70375 c 2.76145,0 5.02986,-0.88561 6.79798,-2.65787 1.77951,-1.78055 2.65476,-4.03756 2.65476,-6.80626 v -56.77756 c 0,-2.75835 -0.87629,-5.02779 -2.65476,-6.79901 -1.76812,-1.77848 -4.03653,-2.66513 -6.79798,-2.66513 z" /><path
       inkscape:connector-curvature="0"
       style="fill:#498af3;fill-opacity:1;stroke-width:1.03580332"
       id="path4"
       d="m 247.60492,187.58369 h -56.77963 v 406.9205 c 0,2.75834 -0.88458,5.02986 -2.65995,6.80212 -1.77536,1.77122 -4.04067,2.66098 -6.80315,2.66098 h -56.78067 c -2.75834,0 -5.02986,-0.88561 -6.80212,-2.65994 -1.77019,-1.77641 -2.65994,-4.04482 -2.65994,-6.80212 V 187.58472 H 58.338793 c -4.333801,0 -7.292055,-1.97009 -8.870619,-5.91236 -1.5796,-3.75065 -0.885612,-7.19883 2.068499,-10.35389 L 146.1687,76.682298 c 2.16897,-1.76812 4.43427,-2.65373 6.80212,-2.65373 2.56258,0 4.83202,0.88561 6.80212,2.65373 l 94.33682,94.338892 c 1.97424,2.3606 2.95825,4.73466 2.95825,7.08904 0,2.77181 -0.88975,5.03297 -2.65994,6.81973 -1.77433,1.76708 -4.03963,2.65373 -6.80315,2.65373 z" /><path
       inkscape:connector-curvature="0"
       style="fill:#498af3;fill-opacity:1;stroke-width:1.03580332"
       id="path6"
       d="M 446.33414,376.85809 H 313.84868 c -2.76145,0 -5.02675,0.88561 -6.80212,2.65787 -1.77122,1.77226 -2.65994,4.04067 -2.65994,6.79798 v 56.78585 c 0,2.7573 0.88561,5.02675 2.65994,6.79797 1.77537,1.77226 4.04067,2.65787 6.80212,2.65787 h 132.48546 c 2.76145,0 5.02882,-0.88561 6.79797,-2.65787 1.77641,-1.77226 2.66513,-4.04067 2.66513,-6.79797 v -56.78585 c 0,-2.75731 -0.88872,-5.02675 -2.66513,-6.79798 -1.76811,-1.77122 -4.03652,-2.65787 -6.79797,-2.65787 z" /><path
       inkscape:connector-curvature="0"
       style="fill:#498af3;fill-opacity:1;stroke-width:1.03580332"
       id="path8"
       d="m 566.69862,76.688511 c -1.7764,-1.770188 -4.0417,-2.659943 -6.80315,-2.659943 H 313.85179 c -2.76145,0 -5.02676,0.885612 -6.80212,2.659943 -1.77019,1.776403 -2.65995,4.044812 -2.65995,6.80212 V 140.2713 c 0,2.76145 0.88562,5.02675 2.65995,6.80212 1.7764,1.77018 4.04067,2.65994 6.80212,2.65994 h 246.04368 c 2.76145,0 5.02675,-0.88561 6.80212,-2.65994 1.77226,-1.77537 2.65787,-4.04067 2.65787,-6.80212 V 83.491667 c 0.004,-2.758344 -0.88561,-5.030897 -2.65684,-6.803156 z" /><path
       inkscape:connector-curvature="0"
       style="fill:#498af3;fill-opacity:1;stroke-width:1.03580332"
       id="path10"
       d="M 503.11687,225.44333 H 313.84868 c -2.76145,0 -5.02675,0.88561 -6.80212,2.66201 -1.77122,1.77434 -2.65994,4.03964 -2.65994,6.80212 v 56.7786 c 0,2.76249 0.88561,5.02779 2.65994,6.80212 1.77537,1.77226 4.04067,2.66201 6.80212,2.66201 h 189.26819 c 2.75835,0 5.02676,-0.88561 6.80523,-2.66201 1.76915,-1.77433 2.65477,-4.03963 2.65477,-6.80212 v -56.7786 c 0,-2.76248 -0.88562,-5.03193 -2.65477,-6.80212 -1.78262,-1.77225 -4.05103,-2.66201 -6.80523,-2.66201 z" /></g><g
     id="g16"
     transform="translate(0,138.37299)" /><g
     id="g18"
     transform="translate(0,138.37299)" /><g
     id="g20"
     transform="translate(0,138.37299)" /><g
     id="g22"
     transform="translate(0,138.37299)" /><g
     id="g24"
     transform="translate(0,138.37299)" /><g
     id="g26"
     transform="translate(0,138.37299)" /><g
     id="g28"
     transform="translate(0,138.37299)" /><g
     id="g30"
     transform="translate(0,138.37299)" /><g
     id="g32"
     transform="translate(0,138.37299)" /><g
     id="g34"
     transform="translate(0,138.37299)" /><g
     id="g36"
     transform="translate(0,138.37299)" /><g
     id="g38"
     transform="translate(0,138.37299)" /><g
     id="g40"
     transform="translate(0,138.37299)" /><g
     id="g42"
     transform="translate(0,138.37299)" /><g
     id="g44"
     transform="translate(0,138.37299)" /></svg>