<?xml version="1.0" encoding="UTF-8" standalone="no"?>
<!-- Generator: Adobe Illustrator 18.0.0, SVG Export Plug-In . SVG Version: 6.00 Build 0)  -->

<svg
   xmlns:dc="http://purl.org/dc/elements/1.1/"
   xmlns:cc="http://creativecommons.org/ns#"
   xmlns:rdf="http://www.w3.org/1999/02/22-rdf-syntax-ns#"
   xmlns:svg="http://www.w3.org/2000/svg"
   xmlns="http://www.w3.org/2000/svg"
   xmlns:sodipodi="http://sodipodi.sourceforge.net/DTD/sodipodi-0.dtd"
   xmlns:inkscape="http://www.inkscape.org/namespaces/inkscape"
   version="1.1"
   id="Capa_1"
   x="0px"
   y="0px"
   viewBox="0 0 100 100"
   xml:space="preserve"
   sodipodi:docname="legend.svg"
   width="100"
   height="100"
   inkscape:version="0.92.1 r15371"><metadata
     id="metadata45"><rdf:RDF><cc:Work
         rdf:about=""><dc:format>image/svg+xml</dc:format><dc:type
           rdf:resource="http://purl.org/dc/dcmitype/StillImage" /><dc:title></dc:title></cc:Work></rdf:RDF></metadata><defs
     id="defs43" /><sodipodi:namedview
     pagecolor="#ffffff"
     bordercolor="#666666"
     borderopacity="1"
     objecttolerance="10"
     gridtolerance="10"
     guidetolerance="10"
     inkscape:pageopacity="0"
     inkscape:pageshadow="2"
     inkscape:window-width="1920"
     inkscape:window-height="1001"
     id="namedview41"
     showgrid="false"
     inkscape:pagecheckerboard="true"
     inkscape:zoom="0.71515152"
     inkscape:cx="165"
     inkscape:cy="165"
     inkscape:window-x="-9"
     inkscape:window-y="-9"
     inkscape:window-maximized="1"
     inkscape:current-layer="Capa_1" /><g
     id="g10"
     transform="translate(0,-230)" /><g
     id="g12"
     transform="translate(0,-230)" /><g
     id="g14"
     transform="translate(0,-230)" /><g
     id="g16"
     transform="translate(0,-230)" /><g
     id="g18"
     transform="translate(0,-230)" /><g
     id="g20"
     transform="translate(0,-230)" /><g
     id="g22"
     transform="translate(0,-230)" /><g
     id="g24"
     transform="translate(0,-230)" /><g
     id="g26"
     transform="translate(0,-230)" /><g
     id="g28"
     transform="translate(0,-230)" /><g
     id="g30"
     transform="translate(0,-230)" /><g
     id="g32"
     transform="translate(0,-230)" /><g
     id="g34"
     transform="translate(0,-230)" /><g
     id="g36"
     transform="translate(0,-230)" /><g
     id="g38"
     transform="translate(0,-230)" /><g
     id="g4537"
     transform="matrix(0.30048384,0,0,0.30048384,103.78151,4.6218416)"><circle
       r="166.3983"
       cy="151.01697"
       cx="-178.98305"
       id="path4525"
       style="opacity:1;fill:#ffffff;fill-opacity:1;fill-rule:nonzero;stroke:none;stroke-width:0.94110239;stroke-linecap:square;stroke-linejoin:miter;stroke-miterlimit:4;stroke-dasharray:1.88220472, 3.76440945;stroke-dashoffset:0;stroke-opacity:1" /><g
       transform="translate(-343.98305,-13.983033)"
       id="g4530"><path
         inkscape:connector-curvature="0"
         id="path2"
         d="m 165,30.762712 c -74.018441,0 -134.237288,60.219661 -134.237288,134.238098 0,74.01844 60.218847,134.23648 134.237288,134.23648 74.01844,0 134.23729,-60.21804 134.23729,-134.23648 C 299.23729,90.982373 239.01844,30.762712 165,30.762712 Z m 0,244.067798 c -60.56136,0 -109.830508,-49.26915 -109.830508,-109.8297 0,-60.56054 49.269148,-109.831318 109.830508,-109.831318 60.56136,0 109.83051,49.270778 109.83051,109.831318 0,60.56055 -49.26997,109.8297 -109.83051,109.8297 z"
         style="fill:#679ef5;fill-opacity:1;stroke-width:0.81355929" /><path
         inkscape:connector-curvature="0"
         id="path4"
         d="m 164.99837,87.711864 c -8.9703,0 -16.26793,7.302509 -16.26793,16.278506 0,8.96787 7.29763,16.26387 16.26793,16.26387 8.97031,0 16.26794,-7.296 16.26794,-16.26387 0,-8.975997 -7.29763,-16.278506 -16.26794,-16.278506 z"
         style="fill:#679ef5;fill-opacity:1;stroke-width:0.81355929" /><path
         inkscape:connector-curvature="0"
         id="path6"
         d="m 165,144.66102 c -6.73953,0 -12.20339,5.46386 -12.20339,12.20339 v 73.22034 c 0,6.73952 5.46386,12.20339 12.20339,12.20339 6.73953,0 12.20339,-5.46387 12.20339,-12.20339 v -73.22034 c 0,-6.73953 -5.46386,-12.20339 -12.20339,-12.20339 z"
         style="fill:#679ef5;fill-opacity:1;stroke-width:0.81355929" /></g></g></svg>