<?xml version="1.0" encoding="UTF-8" standalone="no"?>
<svg
   xmlns:dc="http://purl.org/dc/elements/1.1/"
   xmlns:cc="http://creativecommons.org/ns#"
   xmlns:rdf="http://www.w3.org/1999/02/22-rdf-syntax-ns#"
   xmlns:svg="http://www.w3.org/2000/svg"
   xmlns="http://www.w3.org/2000/svg"
   xmlns:sodipodi="http://sodipodi.sourceforge.net/DTD/sodipodi-0.dtd"
   xmlns:inkscape="http://www.inkscape.org/namespaces/inkscape"
   version="1.1"
   viewBox="0 0 116.2 116.2"
   enable-background="new 0 0 129 129"
   id="svg10"
   sodipodi:docname="cancel.svg"
   width="116.2"
   height="116.2"
   inkscape:version="0.92.1 r15371">
  <metadata
     id="metadata16">
    <rdf:RDF>
      <cc:Work
         rdf:about="">
        <dc:format>image/svg+xml</dc:format>
        <dc:type
           rdf:resource="http://purl.org/dc/dcmitype/StillImage" />
        <dc:title />
      </cc:Work>
    </rdf:RDF>
  </metadata>
  <defs
     id="defs14" />
  <sodipodi:namedview
     pagecolor="#ffffff"
     bordercolor="#666666"
     borderopacity="1"
     objecttolerance="10"
     gridtolerance="10"
     guidetolerance="10"
     inkscape:pageopacity="0"
     inkscape:pageshadow="2"
     inkscape:window-width="1920"
     inkscape:window-height="1017"
     id="namedview12"
     showgrid="false"
     inkscape:pagecheckerboard="true"
     inkscape:zoom="5.1744869"
     inkscape:cx="19.764502"
     inkscape:cy="54.18654"
     inkscape:window-x="1912"
     inkscape:window-y="-8"
     inkscape:window-maximized="1"
     inkscape:current-layer="svg10"
     inkscape:snap-object-midpoints="true"
     inkscape:snap-smooth-nodes="true" />
  <ellipse
     style="opacity:1;fill:#ffffff;fill-opacity:0;fill-rule:nonzero;stroke:none;stroke-width:16.16299248;stroke-linecap:square;stroke-linejoin:miter;stroke-miterlimit:4;stroke-dasharray:none;stroke-dashoffset:0;stroke-opacity:1"
     id="path4486"
     cx="-58.099998"
     cy="57.5"
     rx="53.305828"
     ry="54.786335"
     transform="scale(-1,1)" />
  <g
     id="g6"
     style="fill:#464646;fill-opacity:0.66666669"
     transform="translate(-6.4000015,-6.4000015)">
    <path
       inkscape:connector-curvature="0"
       id="path2"
       d="m 64.5,122.6 c 32,0 58.1,-26 58.1,-58.1 0,-32.1 -26.1,-58.1 -58.1,-58.1 -32,0 -58.1,26.1 -58.1,58.1 0,32 26.1,58.1 58.1,58.1 z m 0,-108 C 92,14.6 114.4,37 114.4,64.5 114.4,92 92,114.4 64.5,114.4 37,114.4 14.6,92 14.6,64.5 14.6,37 37,14.6 64.5,14.6 Z"
       style="fill:#464646;fill-opacity:0.66666669" />
    <path
       inkscape:connector-curvature="0"
       id="path4"
       d="m 42.7,85.7 c 0.8,0.8 1.8,1.2 2.9,1.2 1.1,0 2.1,-0.4 2.9,-1.2 l 16,-16 16,16 c 0.8,0.8 1.8,1.2 2.9,1.2 1.1,0 2.1,-0.4 2.9,-1.2 1.6,-1.6 1.6,-4.2 0,-5.8 l -16,-16 16,-16 c 1.6,-1.6 1.6,-4.2 0,-5.8 -1.6,-1.6 -4.2,-1.6 -5.8,0 l -16,16 -16,-16 c -1.6,-1.6 -4.2,-1.6 -5.8,0 -1.6,1.6 -1.6,4.2 0,5.8 l 16,16 -16,16 c -1.6,1.6 -1.6,4.2 0,5.8 z"
       style="fill:#464646;fill-opacity:0.66666669" />
  </g>
</svg>
